<?xml version="1.0" encoding="UTF-8" standalone="no" ?>
<!DOCTYPE svg PUBLIC "-//W3C//DTD SVG 1.1//EN" "http://www.w3.org/Graphics/SVG/1.1/DTD/svg11.dtd">
<svg xmlns="http://www.w3.org/2000/svg" xmlns:xlink="http://www.w3.org/1999/xlink" version="1.1" width="1280" height="1024" viewBox="0 0 1280 1024" xml:space="preserve">
<desc>Created with Fabric.js 5.3.0</desc>
<defs>
</defs>
<g transform="matrix(1 0 0 1 640 512)" id="background-logo"  >
<rect style="stroke: none; stroke-width: 0; stroke-dasharray: none; stroke-linecap: butt; stroke-dashoffset: 0; stroke-linejoin: miter; stroke-miterlimit: 4; fill: rgb(255,255,255); fill-opacity: 0; fill-rule: nonzero; opacity: 1;"  paint-order="stroke"  x="-640" y="-512" rx="0" ry="0" width="1280" height="1024" />
</g>
<g transform="matrix(1.9211538461538462 0 0 1.9211538461538462 640 411.78879017169976)" id="logo-logo"  >
<g style=""  paint-order="stroke"   >
		<g transform="matrix(0.283833369495408 0 0 -0.28383336949540805 0 0)"  >
<path style="stroke: none; stroke-width: 1; stroke-dasharray: none; stroke-linecap: butt; stroke-dashoffset: 0; stroke-linejoin: miter; stroke-miterlimit: 4; fill: rgb(25,11,217); fill-rule: evenodd; opacity: 1;"  paint-order="stroke"  transform=" translate(-350.00011000000006, -350.00011000000006)" d="M 109.781 696.801 L 590.219 696.801 C 648.84 696.801 696.801 648.84 696.801 590.219 L 696.801 109.781 C 696.801 51.1602 648.84 3.19922 590.219 3.19922 L 109.781 3.19922 C 51.1602 3.19922 3.19922 51.1602 3.19922 109.781 L 3.19922 590.219 C 3.19922 648.84 51.160199999999996 696.801 109.78099999999999 696.801" stroke-linecap="round" />
</g>
		<g transform="matrix(0.283833369495408 0 0 -0.28383336949540805 -18.358342338962984 -18.358311117292317)"  >
<path style="stroke: none; stroke-width: 1; stroke-dasharray: none; stroke-linecap: butt; stroke-dashoffset: 0; stroke-linejoin: miter; stroke-miterlimit: 4; fill: rgb(16,2,204); fill-rule: evenodd; opacity: 1;"  paint-order="stroke"  transform=" translate(-285.32011000000006, -414.68000000000006)" d="M 109.781 696.801 L 567.441 696.801 L 3.19922 132.559 L 3.19922 590.219 C 3.19922 648.84 51.160199999999996 696.801 109.78099999999999 696.801" stroke-linecap="round" />
</g>
		<g transform="matrix(0.283833369495408 0 0 -0.28383336949540805 -0.0011359195888189788 0.000641463415064436)"  >
<path style="stroke: none; stroke-width: 1; stroke-dasharray: none; stroke-linecap: butt; stroke-dashoffset: 0; stroke-linejoin: miter; stroke-miterlimit: 4; fill: rgb(255,255,255); fill-rule: nonzero; opacity: 1;"  paint-order="stroke"  transform=" translate(-349.99610793501813, -349.99785)" d="M 349.996 610.066 C 370.582 610.066 389.22299999999996 601.715 402.715 588.2230000000001 C 416.207 574.73 424.55899999999997 556.09 424.55899999999997 535.504 C 424.55899999999997 514.926 416.207 496.27700000000004 402.715 482.789 C 389.22299999999996 469.301 370.582 460.945 349.996 460.945 C 329.40999999999997 460.945 310.77 469.301 297.28099999999995 482.789 C 283.79299999999995 496.277 275.43799999999993 514.9259999999999 275.43799999999993 535.504 C 275.43799999999993 556.09 283.79299999999995 574.73 297.28099999999995 588.2230000000001 C 310.7699999999999 601.715 329.40999999999997 610.066 349.996 610.066 z M 472.867 315.055 C 462.793 308.184 449.047 310.777 442.172 320.85200000000003 C 435.30100000000004 330.92600000000004 437.89500000000004 344.672 447.96900000000005 351.543 C 462.1050000000001 361.246 486.1170000000001 382.617 499.34800000000007 410.551 C 507.3980000000001 427.555 511.26200000000006 447.074 505.5590000000001 467.613 C 505.15600000000006 469.066 504.90600000000006 470.523 504.8090000000001 471.969 C 501.2660000000001 477.836 497.29300000000006 483.641 492.8550000000001 489.367 C 487.7660000000001 478.81600000000003 481.71100000000007 467.594 474.9380000000001 455.898 C 460.4570000000001 430.918 442.6090000000001 403.555 423.8750000000001 376.03900000000004 C 416.9730000000001 365.93000000000006 403.1800000000001 363.32800000000003 393.0740000000001 370.22700000000003 C 382.9690000000001 377.12500000000006 380.3630000000001 390.918 387.26600000000013 401.023 C 405.5310000000001 427.85200000000003 422.82000000000016 454.348 436.59000000000015 478.10900000000004 C 449.86700000000013 501.016 459.80900000000014 521.148 463.98000000000013 536.1020000000001 C 467.23400000000015 547.8870000000001 479.43400000000014 554.801 491.2190000000001 551.5470000000001 C 494.7700000000001 550.5590000000001 497.87900000000013 548.7660000000002 500.4060000000001 546.4140000000001 L 500.4140000000001 546.426 C 548.1330000000002 502.20700000000005 568.9610000000001 450.79300000000006 572.6910000000001 401.88300000000004 C 577.4770000000001 339.19100000000003 553.5820000000001 280.48400000000004 522.1520000000002 246.29300000000003 C 519.5310000000002 243.44900000000004 516.6600000000002 240.74200000000005 513.5630000000001 238.18800000000005 C 487.35500000000013 216.59400000000005 456.0080000000001 216.60500000000005 425.7270000000001 227.36700000000005 C 421.6020000000001 228.84000000000006 417.4880000000001 230.51600000000005 413.41800000000006 232.37100000000004 L 370.9920000000001 105.11300000000004 L 370.98800000000006 105.10200000000005 L 370.97300000000007 105.04300000000005 L 370.80100000000004 104.56300000000005 L 370.797 104.54300000000005 L 370.60900000000004 104.04700000000005 L 370.605 104.03100000000005 L 370.41 103.55100000000004 L 370.39500000000004 103.51200000000004 C 369.422 101.17600000000004 368.07800000000003 99.08200000000005 366.46500000000003 97.28130000000004 L 366.281 97.07810000000005 L 366.105 96.89060000000005 L 365.73 96.50390000000004 L 365.531 96.30860000000004 L 365.148 95.93750000000004 L 364.961 95.75780000000005 L 364.75 95.57810000000005 C 362.961 93.95700000000005 360.871 92.61720000000005 358.531 91.64450000000005 L 358.488 91.62890000000004 L 358.012 91.43360000000004 L 357.992 91.43360000000004 L 357.49600000000004 91.24610000000004 L 357.47700000000003 91.23830000000004 L 356.99600000000004 91.06640000000004 L 356.93800000000005 91.05080000000004 L 356.48400000000004 90.90630000000004 L 356.39500000000004 90.87890000000004 L 355.97700000000003 90.75780000000005 L 355.84400000000005 90.71880000000004 L 355.46500000000003 90.61720000000004 L 355.305 90.57810000000003 L 354.949 90.49220000000004 L 354.75800000000004 90.45310000000003 L 354.42600000000004 90.37890000000003 L 354.21100000000007 90.33590000000002 L 353.90200000000004 90.27730000000003 L 353.66400000000004 90.23830000000002 L 353.37500000000006 90.18360000000003 L 353.11300000000006 90.15230000000003 L 352.84400000000005 90.10940000000002 L 352.56600000000003 90.07810000000002 L 352.309 90.05080000000002 L 352.02000000000004 90.02340000000002 L 351.773 89.99610000000003 L 351.473 89.97660000000003 L 351.23400000000004 89.96480000000004 L 350.92600000000004 89.94530000000005 L 350.69500000000005 89.94140000000004 L 350.38300000000004 89.93360000000004 L 350.15600000000006 89.92970000000004 L 349.8400000000001 89.92970000000004 L 349.6090000000001 89.93360000000004 L 349.3010000000001 89.94140000000004 L 349.0700000000001 89.94530000000005 L 348.7620000000001 89.96480000000004 L 348.5200000000001 89.97660000000003 L 348.2190000000001 89.99610000000003 L 347.9770000000001 90.02340000000002 L 347.6840000000001 90.05080000000002 L 347.4260000000001 90.07810000000002 L 347.1520000000001 90.10940000000002 L 346.8790000000001 90.15230000000003 L 346.6210000000001 90.18360000000003 L 346.3320000000001 90.23830000000002 L 346.0940000000001 90.27730000000003 L 345.7850000000001 90.33590000000002 L 345.5660000000001 90.37890000000003 L 345.2420000000001 90.45310000000003 L 345.0470000000001 90.49220000000004 L 344.6910000000001 90.57810000000003 L 344.5270000000001 90.61720000000004 L 344.1480000000001 90.71880000000004 L 344.0160000000001 90.75780000000005 L 343.6020000000001 90.87890000000004 L 343.5040000000001 90.90630000000004 L 343.05500000000006 91.05080000000004 L 342.99600000000004 91.06640000000004 L 342.516 91.23830000000004 L 342.5 91.24610000000004 L 342 91.43360000000004 L 341.984 91.43360000000004 L 341.50399999999996 91.62890000000004 L 341.465 91.64450000000005 C 339.12899999999996 92.61720000000005 337.039 93.95700000000005 335.238 95.57810000000005 L 335.031 95.75780000000005 L 334.848 95.93750000000004 L 334.457 96.30860000000004 L 334.262 96.50390000000004 L 333.895 96.89060000000005 L 333.715 97.07810000000005 L 333.53099999999995 97.28130000000004 C 331.91799999999995 99.07810000000005 330.578 101.17200000000004 329.59799999999996 103.51200000000004 L 329.58599999999996 103.55100000000004 L 329.39099999999996 104.03100000000005 L 329.38699999999994 104.04700000000005 L 329.19899999999996 104.54300000000005 L 329.191 104.56300000000005 L 329.027 105.04300000000005 L 329.00399999999996 105.10200000000005 L 328.99999999999994 105.11300000000004 L 286.578 232.37100000000004 C 282.512 230.51600000000005 278.395 228.84000000000003 274.27 227.36700000000005 C 243.98 216.59800000000004 212.629 216.59400000000005 186.42999999999998 238.18800000000005 C 183.32799999999997 240.74200000000005 180.45699999999997 243.44900000000004 177.83999999999997 246.29300000000003 C 146.40999999999997 280.48400000000004 122.51599999999998 339.19100000000003 127.30099999999997 401.88300000000004 C 131.03099999999998 450.793 151.85899999999998 502.20700000000005 199.57 546.426 L 199.58599999999998 546.4140000000001 C 202.11299999999997 548.7660000000001 205.219 550.5590000000001 208.773 551.5470000000001 C 220.555 554.8010000000002 232.754 547.8870000000002 236.012 536.1020000000001 C 248.484 491.3950000000001 309.31600000000003 405.0900000000001 360.516 332.44900000000007 L 367.891 321.9800000000001 C 372.12100000000004 316.94500000000005 377.56600000000003 311.2890000000001 383.934 305.4340000000001 C 465.723 230.23800000000008 527.203 275.8910000000001 529.184 373.51200000000006 C 511.62499999999994 346.0230000000001 487.883 325.36300000000006 472.86699999999996 315.05500000000006 z M 252.031 351.543 C 262.105 344.672 264.699 330.926 257.82800000000003 320.85200000000003 C 250.95300000000003 310.77700000000004 237.20700000000002 308.184 227.13300000000004 315.055 C 212.11300000000003 325.363 188.36700000000005 346.039 170.80900000000003 373.527 C 172.78500000000003 275.879 234.26600000000002 230.25 316.06600000000003 305.438 C 318.00000000000006 307.215 319.848 308.973 321.605 310.707 C 279.55100000000004 370.379 231.918 438.289 207.17200000000003 489.418 C 202.723 483.676 198.74200000000002 477.859 195.19100000000003 471.984 C 195.09400000000002 470.531 194.84800000000004 469.07 194.44100000000003 467.613 C 188.73800000000003 447.074 192.60200000000003 427.555 200.65200000000004 410.551 C 213.88300000000004 382.61699999999996 237.89500000000004 361.246 252.03100000000003 351.543 z M 325.414 255.707 L 349.996 181.95299999999997 L 374.582 255.70299999999997 C 367.152 261.234 360.203 267.03499999999997 353.914 272.813 C 352.586 274.043 351.277 275.27 349.996 276.50399999999996 C 348.715 275.277 347.414 274.04299999999995 346.078 272.816 C 339.79299999999995 267.039 332.844 261.234 325.414 255.70699999999997 z M 371.313 556.8199999999999 C 365.863 562.27 358.324 565.645 349.996 565.645 C 341.67199999999997 565.645 334.133 562.27 328.68 556.8199999999999 C 323.234 551.371 319.855 543.8319999999999 319.855 535.5039999999999 C 319.855 527.1839999999999 323.23400000000004 519.6409999999998 328.68 514.1879999999999 C 334.133 508.74199999999985 341.672 505.3629999999999 349.996 505.3629999999999 C 358.32399999999996 505.3629999999999 365.863 508.7419999999999 371.313 514.1879999999999 C 376.762 519.6409999999998 380.137 527.1839999999999 380.137 535.5039999999999 C 380.137 543.8319999999999 376.762 551.3709999999999 371.313 556.8199999999999" stroke-linecap="round" />
</g>
</g>
</g>
<g transform="matrix(1.9211538461538462 0 0 1.9211538461538462 638.1878716346154 669.4799691474451)" id="text-logo"  >
<g style=""  paint-order="stroke"   >
		<g transform="matrix(1 0 0 1 0 0)" id="text-logo-path-0"  >
<path style="stroke: none; stroke-width: 0; stroke-dasharray: none; stroke-linecap: butt; stroke-dashoffset: 0; stroke-linejoin: miter; stroke-miterlimit: 4; fill: rgb(25,11,217); fill-rule: nonzero; opacity: 1;"  paint-order="stroke"  transform=" translate(-175.505, 17.134999999999998)" d="M 18.35 0.64 Q 13.72 0.64 9.85 -1.76 Q 5.98 -4.17 3.72 -8.26 Q 1.47 -12.35 1.47 -17.17 L 1.47 -17.17 Q 1.47 -22.07 3.77 -26.14 Q 6.08 -30.21 9.97 -32.56 Q 13.87 -34.91 18.4 -34.91 L 18.4 -34.91 Q 22.34 -34.91 25.86 -33.06 Q 29.38 -31.21 31.83 -27.86 L 31.83 -27.86 L 28.93 -26.29 Q 26.97 -28.89 24.18 -30.29 Q 21.39 -31.7 18.38 -31.7 L 18.38 -31.7 Q 14.7 -31.7 11.55 -29.73 Q 8.4 -27.76 6.55 -24.41 Q 4.7 -21.07 4.7 -17.13 L 4.7 -17.13 Q 4.7 -13.21 6.54 -9.86 Q 8.38 -6.52 11.53 -4.56 Q 14.68 -2.6 18.4 -2.6 L 18.4 -2.6 Q 21.49 -2.6 24.21 -4.03 Q 26.93 -5.46 28.82 -7.95 Q 30.72 -10.44 31.41 -13.5 L 31.41 -13.5 L 21.93 -13.5 L 21.93 -16.44 L 35.18 -16.44 Q 35.06 -11.81 32.76 -7.89 Q 30.45 -3.97 26.63 -1.67 Q 22.81 0.64 18.35 0.64 L 18.35 0.64 Z M 49.93 0.64 Q 49.15 0.64 48.61 0.09 Q 48.07 -0.47 48.07 -1.25 L 48.07 -1.25 Q 48.07 -2.03 48.62 -2.57 Q 49.17 -3.11 49.93 -3.11 L 49.93 -3.11 Q 50.72 -3.11 51.27 -2.57 Q 51.82 -2.03 51.82 -1.25 L 51.82 -1.25 Q 51.82 -0.47 51.27 0.09 Q 50.72 0.64 49.93 0.64 L 49.93 0.64 Z M 89.91 -34.3 L 93.15 -34.3 L 93.15 0 L 89.91 0 L 89.91 -16.76 L 71.61 -16.76 L 71.61 0 L 68.38 0 L 68.38 -34.3 L 71.61 -34.3 L 71.61 -19.99 L 89.91 -19.99 L 89.91 -34.3 Z M 132.15 -34.3 L 143.5 -34.3 Q 148.15 -34.3 152.1 -31.98 Q 156.04 -29.67 158.34 -25.74 Q 160.65 -21.8 160.65 -17.15 L 160.65 -17.15 Q 160.65 -12.5 158.34 -8.56 Q 156.04 -4.63 152.1 -2.32 Q 148.15 0 143.5 0 L 143.5 0 L 132.15 0 L 132.15 -34.3 Z M 143.5 -3.23 Q 147.27 -3.23 150.47 -5.11 Q 153.66 -6.98 155.54 -10.18 Q 157.41 -13.38 157.41 -17.15 L 157.41 -17.15 Q 157.41 -20.92 155.54 -24.12 Q 153.66 -27.32 150.47 -29.19 Q 147.27 -31.07 143.5 -31.07 L 143.5 -31.07 L 135.39 -31.07 L 135.39 -3.23 L 143.5 -3.23 Z M 176.64 0 L 176.64 -34.3 L 197.47 -34.3 L 197.47 -31.07 L 179.88 -31.07 L 179.88 -19.99 L 194.48 -19.99 L 194.48 -16.76 L 179.88 -16.76 L 179.88 -3.23 L 197.47 -3.23 L 197.47 0 L 176.64 0 Z M 225.5 0.64 Q 222.75 0.64 220.18 -0.22 Q 217.61 -1.08 215.71 -2.68 Q 213.81 -4.29 213.05 -6.44 L 213.05 -6.44 L 216.09 -7.57 Q 216.63 -6.05 218.07 -4.92 Q 219.52 -3.8 221.48 -3.2 Q 223.44 -2.6 225.5 -2.6 L 225.5 -2.6 Q 227.9 -2.6 229.98 -3.41 Q 232.06 -4.21 233.33 -5.68 Q 234.59 -7.15 234.59 -9.04 L 234.59 -9.04 Q 234.59 -11.76 232.06 -13.25 Q 229.54 -14.75 225.5 -15.46 L 225.5 -15.46 Q 221.6 -16.15 218.96 -17.2 Q 216.31 -18.25 214.77 -20.18 Q 213.22 -22.1 213.22 -25.14 L 213.22 -25.14 Q 213.22 -27.98 214.91 -30.17 Q 216.6 -32.36 219.42 -33.58 Q 222.24 -34.79 225.5 -34.79 L 225.5 -34.79 Q 228.19 -34.79 230.75 -33.94 Q 233.31 -33.1 235.24 -31.49 Q 237.16 -29.89 237.99 -27.69 L 237.99 -27.69 L 234.93 -26.58 Q 234.39 -28.1 232.95 -29.23 Q 231.5 -30.36 229.54 -30.96 Q 227.58 -31.56 225.5 -31.56 L 225.5 -31.56 Q 223.12 -31.56 221.04 -30.74 Q 218.96 -29.91 217.71 -28.46 Q 216.46 -27 216.46 -25.14 L 216.46 -25.14 Q 216.46 -23.01 217.58 -21.78 Q 218.71 -20.56 220.55 -19.94 Q 222.39 -19.33 225.5 -18.77 L 225.5 -18.77 Q 230.96 -17.84 234.39 -15.45 Q 237.82 -13.06 237.82 -9.04 L 237.82 -9.04 Q 237.82 -6.2 236.13 -3.99 Q 234.44 -1.79 231.62 -0.58 Q 228.81 0.64 225.5 0.64 L 225.5 0.64 Z M 255.14 0 L 255.14 -34.3 L 258.38 -34.3 L 258.38 0 L 255.14 0 Z M 291.08 0.64 Q 286.45 0.64 282.58 -1.76 Q 278.71 -4.17 276.46 -8.26 Q 274.2 -12.35 274.2 -17.17 L 274.2 -17.17 Q 274.2 -22.07 276.51 -26.14 Q 278.81 -30.21 282.71 -32.56 Q 286.6 -34.91 291.13 -34.91 L 291.13 -34.91 Q 295.08 -34.91 298.59 -33.06 Q 302.11 -31.21 304.56 -27.86 L 304.56 -27.86 L 301.67 -26.29 Q 299.71 -28.89 296.92 -30.29 Q 294.12 -31.7 291.11 -31.7 L 291.11 -31.7 Q 287.43 -31.7 284.29 -29.73 Q 281.14 -27.76 279.29 -24.41 Q 277.44 -21.07 277.44 -17.13 L 277.44 -17.13 Q 277.44 -13.21 279.28 -9.86 Q 281.11 -6.52 284.26 -4.56 Q 287.41 -2.6 291.13 -2.6 L 291.13 -2.6 Q 294.22 -2.6 296.94 -4.03 Q 299.66 -5.46 301.56 -7.95 Q 303.46 -10.44 304.14 -13.5 L 304.14 -13.5 L 294.66 -13.5 L 294.66 -16.44 L 307.92 -16.44 Q 307.79 -11.81 305.49 -7.89 Q 303.19 -3.97 299.37 -1.67 Q 295.54 0.64 291.08 0.64 L 291.08 0.64 Z M 324.43 0 L 324.43 -34.3 L 327.93 -34.3 L 346.31 -5.83 L 346.31 -34.3 L 349.54 -34.3 L 349.54 0 L 346.06 0 L 327.66 -28.47 L 327.66 0 L 324.43 0 Z" stroke-linecap="round" />
</g>
</g>
</g>
</svg>