<?xml version="1.0" encoding="UTF-8" standalone="no" ?>
<!DOCTYPE svg PUBLIC "-//W3C//DTD SVG 1.1//EN" "http://www.w3.org/Graphics/SVG/1.1/DTD/svg11.dtd">
<svg xmlns="http://www.w3.org/2000/svg" xmlns:xlink="http://www.w3.org/1999/xlink" version="1.1" width="1280" height="1024" viewBox="0 0 1280 1024" xml:space="preserve">
<desc>Created with Fabric.js 5.3.0</desc>
<defs>
</defs>
<g transform="matrix(1 0 0 1 640 512)" id="background-logo"  >
<rect style="stroke: none; stroke-width: 0; stroke-dasharray: none; stroke-linecap: butt; stroke-dashoffset: 0; stroke-linejoin: miter; stroke-miterlimit: 4; fill: rgb(21,2,89); fill-rule: nonzero; opacity: 1;"  paint-order="stroke"  x="-640" y="-512" rx="0" ry="0" width="1280" height="1024" />
</g>
<g transform="matrix(1.9211538461538462 0 0 1.9211538461538462 640 415.8213949437869)" id="logo-logo"  >
<g style=""  paint-order="stroke"   >
		<g transform="matrix(0.6833765864226548 0 0 0.6833765864226548 -0.36279353148677274 40.461261976044966)"  >
<linearGradient id="SVGID_2_402069" gradientUnits="userSpaceOnUse" gradientTransform="matrix(1 0 0 1 0 0)"  x1="979.0864868" y1="1030.3983154" x2="977.562439" y2="1169.4307861">
<stop offset="0%" style="stop-color:rgb(91,44,191);stop-opacity: 1"/>
<stop offset="96.25927%" style="stop-color:rgb(21,2,89);stop-opacity: 1"/>
</linearGradient>
<path style="stroke: none; stroke-width: 1; stroke-dasharray: none; stroke-linecap: butt; stroke-dashoffset: 0; stroke-linejoin: miter; stroke-miterlimit: 4; fill: url(#SVGID_2_402069); fill-rule: nonzero; opacity: 1;"  paint-order="stroke"  transform=" translate(-978.9868416942256, -1090.667599508287)" d="M 1090.2808838 1059.5056152 C 1028.1186524 1045.0860595 877.0038452000001 1010.1887207 868.6853638000001 1010.2584228 C 867.6167603000001 1010.267395 864.6290894000001 1010.321289 863.4269409000001 1012.1460570999999 C 862.1732178000001 1014.0491332999999 862.5346680000001 1016.7320555999999 864.3707886000001 1018.3482665999999 C 907.786499 1068.1347655999998 951.2021485 1117.9213866999999 994.6179199000001 1167.7078857 C 996.9674072 1170.8905029 1000.8261719000001 1171.8597412 1003.4156494 1170.4382323999998 C 1005.6623535 1169.2049559999998 1006.2164306 1166.5767821999998 1006.3116455 1166.0817871 C 1007.3144531 1146.6409912 1008.3173828 1127.2003174 1009.3200684000001 1107.7595215 C 1009.5358887000001 1105.5274657999998 1010.2888184000001 1101.6241455 1013.0837403 1097.7890625 C 1015.3317872 1094.7041016 1018.0559083 1092.8256836 1020.2902833 1091.6933594 C 1041.631836 1085.2347412 1084.873169 1071.9787598 1091.6966554 1068.5056153 C 1092.6075441 1068.0419923 1094.9819337000001 1066.7531739 1095.2510988000001 1064.8249512 C 1095.5795898 1062.4713135 1093.4941406 1059.7932129 1090.2808838 1059.5056152 z" stroke-linecap="round" />
</g>
		<g transform="matrix(0.6833765864226548 0 0 0.6833765864226548 6.644562531918439 36.9341832994611)"  >
<linearGradient id="SVGID_3_402070" gradientUnits="userSpaceOnUse" gradientTransform="matrix(1 0 0 1 0 0)"  x1="991.6300659" y1="1032.1815186" x2="948.5101318" y2="1149.6070557">
<stop offset="0%" style="stop-color:rgb(27,2,115);stop-opacity: 1"/>
<stop offset="24.231379999999998%" style="stop-color:rgb(27,2,115);stop-opacity: 0.1"/>
</linearGradient>
<path style="stroke: none; stroke-width: 1; stroke-dasharray: none; stroke-linecap: butt; stroke-dashoffset: 0; stroke-linejoin: miter; stroke-miterlimit: 4; fill: url(#SVGID_3_402070); fill-rule: nonzero; opacity: 1;"  paint-order="stroke"  transform=" translate(-989.2408600533961, -1085.5063476499997)" d="M 1090.5505371 1059.2359619 C 1062.8848877 1052.7336426 1035.1958008 1046.3487549 1007.4835814999999 1040.0814208999998 C 966.0273436999998 1030.7058104999999 924.5084837999999 1021.5905761999998 882.9270018999999 1012.7359618999998 C 924.2746580999999 1061.2496337999999 965.6223753999999 1109.7631835999998 1006.9700316999999 1158.2767333999998 C 1007.2808838 1133.8621825999999 1008.8252563 1115.3970946999998 1009.5897826999999 1107.4898681999998 C 1009.8056029999999 1105.2576904999999 1010.5585326999999 1101.3544921999999 1013.3534545999998 1097.5194092 C 1015.6015014999998 1094.4344483 1018.3256225999999 1092.5560303 1020.5599975999999 1091.4237061 C 1041.9016113999999 1084.9649659 1085.1428222999998 1071.7091065 1091.9663085999998 1068.235962 C 1092.8771972999998 1067.7723389999999 1095.251709 1066.4835206 1095.520752 1064.5552979 C 1095.8493652 1062.2016602 1093.763916 1059.5235596 1090.5505371 1059.2359619 z" stroke-linecap="round" />
</g>
		<g transform="matrix(0.6833765864226548 0 0 0.6833765864226548 0.005776793911365985 0.2879449616241345)"  >
<linearGradient id="SVGID_4_402071" gradientUnits="userSpaceOnUse" gradientTransform="matrix(1 0 0 1 0 0)"  x1="979.6258545" y1="971.6118164" x2="978.1018066" y2="1110.6442871">
<stop offset="0%" style="stop-color:rgb(171,139,217);stop-opacity: 1"/>
<stop offset="96.25927%" style="stop-color:rgb(91,44,191);stop-opacity: 0.8"/>
</linearGradient>
<path style="stroke: none; stroke-width: 1; stroke-dasharray: none; stroke-linecap: butt; stroke-dashoffset: 0; stroke-linejoin: miter; stroke-miterlimit: 4; fill: url(#SVGID_4_402071); fill-rule: nonzero; opacity: 1;"  paint-order="stroke"  transform=" translate(-979.5261787635968, -1031.8811005081961)" d="M 1090.8201904 1000.7191162 C 1028.657959 986.2994995 877.5432129000001 951.4022217 869.2247314 951.4719238 C 868.1561279 951.480896 865.168457 951.53479 863.9663085 953.3595581 C 862.7125854 955.2626343 863.0740356 957.9455565999999 864.9101562 959.5617675999999 C 908.3258665999999 1009.3482666 951.7415160999999 1059.1348877 995.1572874999999 1108.9213866999999 C 997.5067747999999 1112.1040039 1001.3655395 1113.0732421999999 1003.9550169999999 1111.6517333999998 C 1006.2017210999999 1110.4184569999998 1006.7557981999998 1107.7902831999997 1006.8510130999999 1107.2952880999999 C 1007.8538206999999 1087.8544921999999 1008.8567503999999 1068.4138183999999 1009.859436 1048.9730224999998 C 1010.0752563 1046.7409667999998 1010.828186 1042.8376465 1013.6231078999999 1039.0025635 C 1015.8711547999999 1035.9176026 1018.5952758999999 1034.0391846 1020.8296508999999 1032.9068604 C 1042.1711426 1026.4482421999999 1085.4124755999999 1013.1922607999999 1092.2359619 1009.7191162999999 C 1093.1468505999999 1009.2554321999999 1095.5212402 1007.9666748999999 1095.7904053 1006.0383911999999 C 1096.1188965 1003.6848145 1094.0334473 1001.0066528 1090.8201904 1000.7191162 z" stroke-linecap="round" />
</g>
		<g transform="matrix(0.6833765864226548 0 0 0.6833765864226548 7.013112103599269 -3.2391337148976334)"  >
<linearGradient id="SVGID_5_402072" gradientUnits="userSpaceOnUse" gradientTransform="matrix(1 0 0 1 0 0)"  x1="992.1693726" y1="973.3949585" x2="949.0494385" y2="1090.8205566">
<stop offset="0%" style="stop-color:rgb(27,2,115);stop-opacity: 1"/>
<stop offset="33.32957%" style="stop-color:rgb(27,2,115);stop-opacity: 0.1"/>
</linearGradient>
<path style="stroke: none; stroke-width: 1; stroke-dasharray: none; stroke-linecap: butt; stroke-dashoffset: 0; stroke-linejoin: miter; stroke-miterlimit: 4; fill: url(#SVGID_5_402072); fill-rule: nonzero; opacity: 1;"  paint-order="stroke"  transform=" translate(-989.7801667533961, -1026.71984865)" d="M 1091.0898438 1000.4494629 C 1063.4241944 993.9470825 1035.7351075 987.5622559 1008.0228881999999 981.2949219 C 966.5666503999998 971.9192505 925.0477904999999 962.8040771999999 883.4663085999999 953.9494629 C 924.8139647999999 1002.4630737 966.1616820999999 1050.9766846 1007.5093383999999 1099.4902344 C 1007.8201905 1075.0756836 1009.364563 1056.6105957 1010.1290893999999 1048.7033692 C 1010.3449096999999 1046.4711915 1011.0978393999999 1042.5679932 1013.8927612999998 1038.7329102 C 1016.1408081999998 1035.6479493000002 1018.8649292999999 1033.7695313000002 1021.0993042999999 1032.6372071 C 1042.4409180999999 1026.1784669 1085.6821289999998 1012.9226075 1092.5056152999998 1009.449463 C 1093.4165039999998 1008.9857789 1095.7910157 1007.6970216000001 1096.0600587 1005.7687379 C 1096.3886719 1003.4151611 1094.3032227 1000.7369995 1091.0898438 1000.4494629 z" stroke-linecap="round" />
</g>
		<g transform="matrix(0.6833765864226548 0 0 0.6833765864226548 0.3628144020169657 -40.461282818968726)"  >
<linearGradient id="SVGID_6_402073" gradientUnits="userSpaceOnUse" gradientTransform="matrix(1 0 0 1 0 0)"  x1="979.5640259" y1="897.1875" x2="984.2805786" y2="1129.736084">
<stop offset="0%" style="stop-color:rgb(242,242,242);stop-opacity: 1"/>
<stop offset="60.543389999999995%" style="stop-color:rgb(162,132,211);stop-opacity: 0.7"/>
</linearGradient>
<path style="stroke: none; stroke-width: 1; stroke-dasharray: none; stroke-linecap: butt; stroke-dashoffset: 0; stroke-linejoin: miter; stroke-miterlimit: 4; fill: url(#SVGID_6_402073); fill-rule: nonzero; opacity: 1;"  paint-order="stroke"  transform=" translate(-980.0486397539194, -972.251858608196)" d="M 1091.3426514 941.0899048 C 1029.18042 926.6702881 878.0656739000001 891.7730103 869.7471924 891.8427124 C 868.6785889 891.8516846 865.690918 891.9055786 864.4887695 893.7303466999999 C 863.2350464 895.6334228999999 863.5964966 898.3163451999999 865.4326172 899.9325561999999 C 908.8483276 949.7190552 952.2639770999999 999.5056152999999 995.6797485 1049.2921142999999 C 998.0292357999999 1052.4747315 1001.8880005 1053.4439697999999 1004.4774779999999 1052.0224609999998 C 1006.7241820999999 1050.7891845999998 1007.2782591999999 1048.1610107999998 1007.3734741 1047.6661378 C 1008.3762816999999 1028.2253418999999 1009.3792113999999 1008.7845459999999 1010.381897 989.3437500999999 C 1010.5977173 987.1116943999998 1011.350647 983.2084351999998 1014.1455689 979.3732910999998 C 1016.3936157999999 976.2883301999998 1019.1177369 974.4099121999999 1021.3521119 973.2776489999999 C 1042.6936036 966.8189697999999 1085.9349366 953.5630493999998 1092.7584229 950.0899048999999 C 1093.6693116 949.6262207999998 1096.0437012 948.3374634999999 1096.3128663 946.4091797999998 C 1096.6413574 944.055603 1094.5559082 941.3774414 1091.3426514 941.0899048 z" stroke-linecap="round" />
</g>
</g>
</g>
<g transform="matrix(1.9211538461538462 0 0 1.9211538461538462 640.5686615384616 660.5251916065471)" id="text-logo"  >
<g style=""  paint-order="stroke"   >
		<g transform="matrix(1 0 0 1 0 0)" id="text-logo-path-0"  >
<path style="stroke: none; stroke-width: 0; stroke-dasharray: none; stroke-linecap: butt; stroke-dashoffset: 0; stroke-linejoin: miter; stroke-miterlimit: 4; fill: rgb(233,231,238); fill-rule: nonzero; opacity: 1;"  paint-order="stroke"  transform=" translate(-232.65500000000003, 24.419999999999998)" d="M 27.01 0.74 L 27.01 0.74 Q 20.13 0.74 15.1 -2.33 Q 10.06 -5.4 7.33 -11.03 Q 4.59 -16.65 4.59 -24.42 L 4.59 -24.42 Q 4.59 -32.19 7.44 -37.81 Q 10.29 -43.44 15.35 -46.51 Q 20.42 -49.58 27.08 -49.58 L 27.08 -49.58 Q 34.56 -49.58 39.18 -46.62 Q 43.81 -43.66 46.18 -37.59 L 46.18 -37.59 L 42.77 -35.82 Q 39.37 -46.18 27.08 -46.18 L 27.08 -46.18 Q 21.61 -46.18 17.39 -43.55 Q 13.17 -40.92 10.84 -36.04 Q 8.51 -31.15 8.51 -24.42 L 8.51 -24.42 Q 8.51 -14.36 13.39 -8.51 Q 18.28 -2.66 27.16 -2.66 L 27.16 -2.66 Q 32.56 -2.66 36.11 -4.88 Q 39.66 -7.1 41.37 -10.54 Q 43.07 -13.99 43.07 -17.69 L 43.07 -17.69 L 43.07 -20.42 L 26.49 -20.42 L 26.49 -23.9 L 46.55 -23.9 L 46.55 0 L 43.51 0 L 43.36 -8.73 Q 41.37 -4.29 37.18 -1.78 Q 33 0.74 27.01 0.74 Z M 60.83 -6.07 L 60.83 -6.07 Q 62.31 -6.07 63.23 -5.14 Q 64.16 -4.22 64.16 -2.74 L 64.16 -2.74 Q 64.16 -1.26 63.23 -0.33 Q 62.31 0.59 60.83 0.59 L 60.83 0.59 Q 59.35 0.59 58.42 -0.33 Q 57.5 -1.26 57.5 -2.74 L 57.5 -2.74 Q 57.5 -4.22 58.42 -5.14 Q 59.35 -6.07 60.83 -6.07 Z M 77.4 -48.84 L 81.1 -48.84 L 81.1 -26.57 L 111.3 -26.57 L 111.3 -48.84 L 115 -48.84 L 115 0 L 111.3 0 L 111.3 -23.09 L 81.1 -23.09 L 81.1 0 L 77.4 0 L 77.4 -48.84 Z M 155.03 -48.84 L 170.42 -48.84 Q 182.11 -48.84 188.44 -42.66 Q 194.77 -36.48 194.77 -24.79 L 194.77 -24.79 Q 194.77 -12.73 188.44 -6.36 Q 182.11 0 170.42 0 L 170.42 0 L 155.03 0 L 155.03 -48.84 Z M 158.73 -3.4 L 170.72 -3.4 Q 180.49 -3.4 185.7 -8.95 Q 190.92 -14.5 190.92 -24.79 L 190.92 -24.79 Q 190.92 -34.71 185.7 -40.07 Q 180.49 -45.44 170.72 -45.44 L 170.72 -45.44 L 158.73 -45.44 L 158.73 -3.4 Z M 242.35 0 L 207.79 0 L 207.79 -48.84 L 241.17 -48.84 L 241.17 -45.44 L 211.49 -45.44 L 211.49 -26.57 L 234.95 -26.57 L 234.95 -23.09 L 211.49 -23.09 L 211.49 -3.4 L 242.35 -3.4 L 242.35 0 Z M 268.92 -49.58 L 268.92 -49.58 Q 282.46 -49.58 287.34 -38.78 L 287.34 -38.78 L 284.23 -36.41 Q 282.09 -41.59 278.2 -43.88 Q 274.32 -46.18 268.62 -46.18 L 268.62 -46.18 Q 262.03 -46.18 258.56 -43.25 Q 255.08 -40.33 255.08 -36.11 L 255.08 -36.11 Q 255.08 -32.71 257.26 -30.49 Q 259.44 -28.27 265.44 -26.94 L 265.44 -26.94 L 274.98 -24.86 Q 282.09 -23.31 285.05 -20.39 Q 288.01 -17.46 288.01 -12.88 L 288.01 -12.88 Q 288.01 -8.88 285.71 -5.81 Q 283.42 -2.74 279.31 -1 Q 275.21 0.74 269.73 0.74 L 269.73 0.74 Q 261.89 0.74 256.6 -2.4 Q 251.3 -5.55 249.31 -11.1 L 249.31 -11.1 L 252.56 -13.62 Q 254.12 -8.36 258.67 -5.51 Q 263.22 -2.66 269.88 -2.66 L 269.88 -2.66 Q 276.09 -2.66 280.13 -5.22 Q 284.16 -7.77 284.16 -12.65 L 284.16 -12.65 Q 284.16 -15.69 281.94 -17.83 Q 279.72 -19.98 274.24 -21.16 L 274.24 -21.16 L 264.18 -23.38 Q 257.15 -24.94 254.15 -28.01 Q 251.16 -31.08 251.16 -35.67 L 251.16 -35.67 Q 251.16 -39.44 253.3 -42.59 Q 255.45 -45.73 259.41 -47.66 Q 263.37 -49.58 268.92 -49.58 Z M 300.37 -48.84 L 304.07 -48.84 L 304.07 0 L 300.37 0 L 300.37 -48.84 Z M 339.51 0.74 L 339.51 0.74 Q 332.63 0.74 327.6 -2.33 Q 322.57 -5.4 319.83 -11.03 Q 317.09 -16.65 317.09 -24.42 L 317.09 -24.42 Q 317.09 -32.19 319.94 -37.81 Q 322.79 -43.44 327.86 -46.51 Q 332.93 -49.58 339.59 -49.58 L 339.59 -49.58 Q 347.06 -49.58 351.69 -46.62 Q 356.31 -43.66 358.68 -37.59 L 358.68 -37.59 L 355.27 -35.82 Q 351.87 -46.18 339.59 -46.18 L 339.59 -46.18 Q 334.11 -46.18 329.89 -43.55 Q 325.67 -40.92 323.34 -36.04 Q 321.01 -31.15 321.01 -24.42 L 321.01 -24.42 Q 321.01 -14.36 325.9 -8.51 Q 330.78 -2.66 339.66 -2.66 L 339.66 -2.66 Q 345.06 -2.66 348.61 -4.88 Q 352.17 -7.1 353.87 -10.54 Q 355.57 -13.99 355.57 -17.69 L 355.57 -17.69 L 355.57 -20.42 L 338.99 -20.42 L 338.99 -23.9 L 359.05 -23.9 L 359.05 0 L 356.01 0 L 355.87 -8.73 Q 353.87 -4.29 349.69 -1.78 Q 345.51 0.74 339.51 0.74 Z M 406.93 -48.84 L 410.4 -48.84 L 410.4 0 L 405.82 0 L 379.92 -38.33 L 376.29 -44.62 L 376.22 -44.62 L 376.44 -38.7 L 376.44 0 L 372.89 0 L 372.89 -48.84 L 377.55 -48.84 L 403.37 -10.58 L 407.07 -4.22 L 407.07 -4.22 L 406.93 -10.14 L 406.93 -48.84 Z M 441.63 -49.58 L 441.63 -49.58 Q 455.17 -49.58 460.06 -38.78 L 460.06 -38.78 L 456.95 -36.41 Q 454.8 -41.59 450.92 -43.88 Q 447.03 -46.18 441.34 -46.18 L 441.34 -46.18 Q 434.75 -46.18 431.27 -43.25 Q 427.79 -40.33 427.79 -36.11 L 427.79 -36.11 Q 427.79 -32.71 429.98 -30.49 Q 432.16 -28.27 438.15 -26.94 L 438.15 -26.94 L 447.7 -24.86 Q 454.8 -23.31 457.76 -20.39 Q 460.72 -17.46 460.72 -12.88 L 460.72 -12.88 Q 460.72 -8.88 458.43 -5.81 Q 456.14 -2.74 452.03 -1 Q 447.92 0.74 442.45 0.74 L 442.45 0.74 Q 434.6 0.74 429.31 -2.4 Q 424.02 -5.55 422.02 -11.1 L 422.02 -11.1 L 425.28 -13.62 Q 426.83 -8.36 431.38 -5.51 Q 435.93 -2.66 442.59 -2.66 L 442.59 -2.66 Q 448.81 -2.66 452.84 -5.22 Q 456.88 -7.77 456.88 -12.65 L 456.88 -12.65 Q 456.88 -15.69 454.66 -17.83 Q 452.44 -19.98 446.96 -21.16 L 446.96 -21.16 L 436.9 -23.38 Q 429.87 -24.94 426.87 -28.01 Q 423.87 -31.08 423.87 -35.67 L 423.87 -35.67 Q 423.87 -39.44 426.02 -42.59 Q 428.16 -45.73 432.12 -47.66 Q 436.08 -49.58 441.63 -49.58 Z" stroke-linecap="round" />
</g>
</g>
</g>
</svg>